<mxfile host="app.diagrams.net" modified="2023-08-15T18:14:32.030Z" agent="Mozilla/5.0 (Macintosh; Intel Mac OS X 10.15; rv:102.0) Gecko/20100101 Firefox/102.0" version="21.6.8" etag="8qCAyjrq1mxfnfHmO6VZ" type="github">
  <diagram name="Page-1" id="bp-Tw60OQVZ9VVYzsreO">
    <mxGraphModel>
      <root>
        <mxCell id="0" />
        <mxCell id="1" parent="0" />
      </root>
    </mxGraphModel>
  </diagram>
</mxfile>
